. 
 
http://www.torrenting.com          :     Once & For all ;)


               www . Torrenting . Com 

(((((((((((((= Enjoy No RAR releases =))))))))))))))))))))


...................................NFO:....................................

.








































          
          
              
              
                    
                    
                    
                    

The.Double.2011.BRRip.XviD.AC3-SiC

Poster:
[IMG]http://img838.imageshack.us/img838/4203/mv5bmjiwnjm5nte1m15bml5.jpg[/IMG]

IMDB Link:
http://www.imdb.com/title/tt1646980/

Description:
A retired CIA operative is paired with a young FBI agent to unravel the mystery of a senator's murder, with all signs pointing to a Soviet assassin. 

MediaInfo:
General
Complete name                    : The.Double.2011.720p.BRRip.XviD.AC3-SiC.avi
Format                           : AVI
Format/Info                      : Audio Video Interleave
Format profile                   : OpenDML
File size                        : 3.00 GiB
Duration                         : 1h 38mn
Overall bit rate                 : 4 369 Kbps
Writing library                  : VirtualDub build 32839/release

Video
ID                               : 0
Format                           : MPEG-4 Visual
Format profile                   : Advanced Simple@L5
Format settings, BVOP            : 2
Format settings, QPel            : No
Format settings, GMC             : No warppoints
Format settings, Matrix          : Default (MPEG)
Muxing mode                      : Packed bitstream
Codec ID                         : XVID
Codec ID/Hint                    : XviD
Duration                         : 1h 38mn
Bit rate                         : 3 911 Kbps
Width                            : 1 280 pixels
Height                           : 544 pixels
Display aspect ratio             : 2.35:1
Frame rate                       : 23.976 fps
Color space                      : YUV
Chroma subsampling               : 4:2:0
Bit depth                        : 8 bits
Scan type                        : Progressive
Compression mode                 : Lossy
Bits/(Pixel*Frame)               : 0.234
Stream size                      : 2.69 GiB (90%)
Writing library                  : XviD 64

Audio
ID                               : 1
Format                           : AC-3
Format/Info                      : Audio Coding 3
Mode extension                   : CM (complete main)
Codec ID                         : 2000
Duration                         : 1h 38mn
Bit rate mode                    : Constant
Bit rate                         : 448 Kbps
Channel(s)                       : 6 channels
Channel positions                : Front: L C R, Side: L R, LFE
Sampling rate                    : 48.0 KHz
Bit depth                        : 16 bits
Compression mode                 : Lossy
Stream size                      : 315 MiB (10%)
Alignment                        : Split accross interleaves
Interleave, duration             : 42 ms (1.00 video frame)
Interleave, preload duration     : 500 ms




Screenshots:
[IMG]http://img717.imageshack.us/img717/299/snap1t.png[/IMG]
[IMG]http://img855.imageshack.us/img855/2888/snap2w.png[/IMG]
[IMG]http://img515.imageshack.us/img515/1557/snap3f.png[/IMG]
[IMG]http://img692.imageshack.us/img692/1212/snap4v.png[/IMG]
[IMG]http://img189.imageshack.us/img189/6643/snap5f.png[/IMG]

Note : did my thingturned out nice

Source: 1080p HD4U thnx

Enjoy!

Respects to T00NG0D, ELEKTRI4KA, PA, YeFsTe, MrRep and everyone in the struggle...